<mxfile host="app.diagrams.net" modified="2023-02-28T03:42:46.117Z" agent="5.0 (Windows NT 10.0; Win64; x64) AppleWebKit/537.36 (KHTML, like Gecko) Chrome/110.0.0.0 Safari/537.36" etag="7ZI2oCLEA5YvATGMpP-s" version="20.8.23" type="github">
  <diagram name="第 1 页" id="NYzX_QxbxuXhN7H5Xcrf">
    <mxGraphModel dx="1084" dy="539" grid="1" gridSize="10" guides="1" tooltips="1" connect="1" arrows="1" fold="1" page="1" pageScale="1" pageWidth="827" pageHeight="1169" math="0" shadow="0">
      <root>
        <mxCell id="0" />
        <mxCell id="1" parent="0" />
        <mxCell id="tceClB1WPFCZ8LIMCRth-1" value="" style="verticalLabelPosition=bottom;html=1;verticalAlign=top;align=center;strokeColor=none;fillColor=#808080;shape=mxgraph.azure.user;fontSize=14;" vertex="1" parent="1">
          <mxGeometry x="60" y="190" width="47.5" height="50" as="geometry" />
        </mxCell>
      </root>
    </mxGraphModel>
  </diagram>
</mxfile>
